<?xml version="1.0" encoding="utf-8"?>
<!DOCTYPE svg PUBLIC "-//W3C//DTD SVG 20010904//EN" "http://www.w3.org/TR/2001/REC-SVG-20010904/DTD/svg10.dtd">
<svg xmlns="http://www.w3.org/2000/svg" xml:space="preserve" xmlns:xlink="http://www.w3.org/1999/xlink" width="999" height="999" viewBox="0 0 999 999">
<defs>
<mask id="qrmask"><g fill="#ffffff">
<g transform="translate(270,54) scale(4.5)"><rect width="6" height="6"/></g>
<g transform="translate(297,54) scale(4.5)"><rect width="6" height="6"/></g>
<g transform="translate(324,54) scale(4.5)"><rect width="6" height="6"/></g>
<g transform="translate(513,54) scale(4.5)"><rect width="6" height="6"/></g>
<g transform="translate(567,54) scale(4.5)"><rect width="6" height="6"/></g>
<g transform="translate(621,54) scale(4.5)"><rect width="6" height="6"/></g>
<g transform="translate(675,54) scale(4.5)"><rect width="6" height="6"/></g>
<g transform="translate(270,81) scale(4.5)"><rect width="6" height="6"/></g>
<g transform="translate(351,81) scale(4.5)"><rect width="6" height="6"/></g>
<g transform="translate(378,81) scale(4.5)"><rect width="6" height="6"/></g>
<g transform="translate(405,81) scale(4.5)"><rect width="6" height="6"/></g>
<g transform="translate(432,81) scale(4.5)"><rect width="6" height="6"/></g>
<g transform="translate(486,81) scale(4.5)"><rect width="6" height="6"/></g>
<g transform="translate(540,81) scale(4.5)"><rect width="6" height="6"/></g>
<g transform="translate(594,81) scale(4.5)"><rect width="6" height="6"/></g>
<g transform="translate(621,81) scale(4.5)"><rect width="6" height="6"/></g>
<g transform="translate(675,81) scale(4.5)"><rect width="6" height="6"/></g>
<g transform="translate(270,108) scale(4.5)"><rect width="6" height="6"/></g>
<g transform="translate(297,108) scale(4.5)"><rect width="6" height="6"/></g>
<g transform="translate(324,108) scale(4.5)"><rect width="6" height="6"/></g>
<g transform="translate(351,108) scale(4.5)"><rect width="6" height="6"/></g>
<g transform="translate(378,108) scale(4.5)"><rect width="6" height="6"/></g>
<g transform="translate(405,108) scale(4.5)"><rect width="6" height="6"/></g>
<g transform="translate(432,108) scale(4.5)"><rect width="6" height="6"/></g>
<g transform="translate(459,108) scale(4.5)"><rect width="6" height="6"/></g>
<g transform="translate(594,108) scale(4.5)"><rect width="6" height="6"/></g>
<g transform="translate(621,108) scale(4.5)"><rect width="6" height="6"/></g>
<g transform="translate(648,108) scale(4.5)"><rect width="6" height="6"/></g>
<g transform="translate(675,108) scale(4.5)"><rect width="6" height="6"/></g>
<g transform="translate(297,135) scale(4.5)"><rect width="6" height="6"/></g>
<g transform="translate(324,135) scale(4.5)"><rect width="6" height="6"/></g>
<g transform="translate(351,135) scale(4.5)"><rect width="6" height="6"/></g>
<g transform="translate(405,135) scale(4.5)"><rect width="6" height="6"/></g>
<g transform="translate(432,135) scale(4.5)"><rect width="6" height="6"/></g>
<g transform="translate(459,135) scale(4.5)"><rect width="6" height="6"/></g>
<g transform="translate(486,135) scale(4.5)"><rect width="6" height="6"/></g>
<g transform="translate(513,135) scale(4.5)"><rect width="6" height="6"/></g>
<g transform="translate(594,135) scale(4.5)"><rect width="6" height="6"/></g>
<g transform="translate(621,135) scale(4.5)"><rect width="6" height="6"/></g>
<g transform="translate(702,135) scale(4.5)"><rect width="6" height="6"/></g>
<g transform="translate(297,162) scale(4.5)"><rect width="6" height="6"/></g>
<g transform="translate(324,162) scale(4.5)"><rect width="6" height="6"/></g>
<g transform="translate(405,162) scale(4.5)"><rect width="6" height="6"/></g>
<g transform="translate(432,162) scale(4.5)"><rect width="6" height="6"/></g>
<g transform="translate(513,162) scale(4.5)"><rect width="6" height="6"/></g>
<g transform="translate(567,162) scale(4.5)"><rect width="6" height="6"/></g>
<g transform="translate(594,162) scale(4.5)"><rect width="6" height="6"/></g>
<g transform="translate(621,162) scale(4.5)"><rect width="6" height="6"/></g>
<g transform="translate(702,162) scale(4.5)"><rect width="6" height="6"/></g>
<g transform="translate(270,189) scale(4.5)"><rect width="6" height="6"/></g>
<g transform="translate(297,189) scale(4.5)"><rect width="6" height="6"/></g>
<g transform="translate(324,189) scale(4.5)"><rect width="6" height="6"/></g>
<g transform="translate(378,189) scale(4.5)"><rect width="6" height="6"/></g>
<g transform="translate(432,189) scale(4.5)"><rect width="6" height="6"/></g>
<g transform="translate(486,189) scale(4.5)"><rect width="6" height="6"/></g>
<g transform="translate(567,189) scale(4.5)"><rect width="6" height="6"/></g>
<g transform="translate(594,189) scale(4.5)"><rect width="6" height="6"/></g>
<g transform="translate(648,189) scale(4.5)"><rect width="6" height="6"/></g>
<g transform="translate(702,189) scale(4.5)"><rect width="6" height="6"/></g>
<g transform="translate(270,216) scale(4.5)"><rect width="6" height="6"/></g>
<g transform="translate(324,216) scale(4.5)"><rect width="6" height="6"/></g>
<g transform="translate(378,216) scale(4.5)"><rect width="6" height="6"/></g>
<g transform="translate(432,216) scale(4.5)"><rect width="6" height="6"/></g>
<g transform="translate(486,216) scale(4.5)"><rect width="6" height="6"/></g>
<g transform="translate(540,216) scale(4.5)"><rect width="6" height="6"/></g>
<g transform="translate(594,216) scale(4.5)"><rect width="6" height="6"/></g>
<g transform="translate(648,216) scale(4.5)"><rect width="6" height="6"/></g>
<g transform="translate(702,216) scale(4.5)"><rect width="6" height="6"/></g>
<g transform="translate(270,243) scale(4.5)"><rect width="6" height="6"/></g>
<g transform="translate(378,243) scale(4.5)"><rect width="6" height="6"/></g>
<g transform="translate(432,243) scale(4.5)"><rect width="6" height="6"/></g>
<g transform="translate(459,243) scale(4.5)"><rect width="6" height="6"/></g>
<g transform="translate(486,243) scale(4.5)"><rect width="6" height="6"/></g>
<g transform="translate(540,243) scale(4.5)"><rect width="6" height="6"/></g>
<g transform="translate(594,243) scale(4.5)"><rect width="6" height="6"/></g>
<g transform="translate(621,243) scale(4.5)"><rect width="6" height="6"/></g>
<g transform="translate(648,243) scale(4.5)"><rect width="6" height="6"/></g>
<g transform="translate(702,243) scale(4.5)"><rect width="6" height="6"/></g>
<g transform="translate(108,270) scale(4.5)"><rect width="6" height="6"/></g>
<g transform="translate(135,270) scale(4.5)"><rect width="6" height="6"/></g>
<g transform="translate(162,270) scale(4.5)"><rect width="6" height="6"/></g>
<g transform="translate(216,270) scale(4.5)"><rect width="6" height="6"/></g>
<g transform="translate(270,270) scale(4.5)"><rect width="6" height="6"/></g>
<g transform="translate(297,270) scale(4.5)"><rect width="6" height="6"/></g>
<g transform="translate(378,270) scale(4.5)"><rect width="6" height="6"/></g>
<g transform="translate(432,270) scale(4.5)"><rect width="6" height="6"/></g>
<g transform="translate(459,270) scale(4.5)"><rect width="6" height="6"/></g>
<g transform="translate(513,270) scale(4.5)"><rect width="6" height="6"/></g>
<g transform="translate(540,270) scale(4.5)"><rect width="6" height="6"/></g>
<g transform="translate(567,270) scale(4.5)"><rect width="6" height="6"/></g>
<g transform="translate(594,270) scale(4.5)"><rect width="6" height="6"/></g>
<g transform="translate(621,270) scale(4.5)"><rect width="6" height="6"/></g>
<g transform="translate(648,270) scale(4.5)"><rect width="6" height="6"/></g>
<g transform="translate(729,270) scale(4.5)"><rect width="6" height="6"/></g>
<g transform="translate(756,270) scale(4.5)"><rect width="6" height="6"/></g>
<g transform="translate(783,270) scale(4.5)"><rect width="6" height="6"/></g>
<g transform="translate(864,270) scale(4.5)"><rect width="6" height="6"/></g>
<g transform="translate(891,270) scale(4.5)"><rect width="6" height="6"/></g>
<g transform="translate(918,270) scale(4.5)"><rect width="6" height="6"/></g>
<g transform="translate(108,297) scale(4.5)"><rect width="6" height="6"/></g>
<g transform="translate(270,297) scale(4.5)"><rect width="6" height="6"/></g>
<g transform="translate(351,297) scale(4.5)"><rect width="6" height="6"/></g>
<g transform="translate(405,297) scale(4.5)"><rect width="6" height="6"/></g>
<g transform="translate(432,297) scale(4.5)"><rect width="6" height="6"/></g>
<g transform="translate(459,297) scale(4.5)"><rect width="6" height="6"/></g>
<g transform="translate(513,297) scale(4.5)"><rect width="6" height="6"/></g>
<g transform="translate(594,297) scale(4.5)"><rect width="6" height="6"/></g>
<g transform="translate(675,297) scale(4.5)"><rect width="6" height="6"/></g>
<g transform="translate(702,297) scale(4.5)"><rect width="6" height="6"/></g>
<g transform="translate(729,297) scale(4.5)"><rect width="6" height="6"/></g>
<g transform="translate(756,297) scale(4.5)"><rect width="6" height="6"/></g>
<g transform="translate(54,324) scale(4.5)"><rect width="6" height="6"/></g>
<g transform="translate(135,324) scale(4.5)"><rect width="6" height="6"/></g>
<g transform="translate(216,324) scale(4.5)"><rect width="6" height="6"/></g>
<g transform="translate(378,324) scale(4.5)"><rect width="6" height="6"/></g>
<g transform="translate(405,324) scale(4.5)"><rect width="6" height="6"/></g>
<g transform="translate(432,324) scale(4.5)"><rect width="6" height="6"/></g>
<g transform="translate(486,324) scale(4.5)"><rect width="6" height="6"/></g>
<g transform="translate(513,324) scale(4.5)"><rect width="6" height="6"/></g>
<g transform="translate(594,324) scale(4.5)"><rect width="6" height="6"/></g>
<g transform="translate(648,324) scale(4.5)"><rect width="6" height="6"/></g>
<g transform="translate(729,324) scale(4.5)"><rect width="6" height="6"/></g>
<g transform="translate(783,324) scale(4.5)"><rect width="6" height="6"/></g>
<g transform="translate(837,324) scale(4.5)"><rect width="6" height="6"/></g>
<g transform="translate(918,324) scale(4.5)"><rect width="6" height="6"/></g>
<g transform="translate(54,351) scale(4.5)"><rect width="6" height="6"/></g>
<g transform="translate(108,351) scale(4.5)"><rect width="6" height="6"/></g>
<g transform="translate(162,351) scale(4.5)"><rect width="6" height="6"/></g>
<g transform="translate(324,351) scale(4.5)"><rect width="6" height="6"/></g>
<g transform="translate(378,351) scale(4.5)"><rect width="6" height="6"/></g>
<g transform="translate(432,351) scale(4.5)"><rect width="6" height="6"/></g>
<g transform="translate(459,351) scale(4.5)"><rect width="6" height="6"/></g>
<g transform="translate(513,351) scale(4.5)"><rect width="6" height="6"/></g>
<g transform="translate(567,351) scale(4.5)"><rect width="6" height="6"/></g>
<g transform="translate(594,351) scale(4.5)"><rect width="6" height="6"/></g>
<g transform="translate(675,351) scale(4.5)"><rect width="6" height="6"/></g>
<g transform="translate(756,351) scale(4.5)"><rect width="6" height="6"/></g>
<g transform="translate(837,351) scale(4.5)"><rect width="6" height="6"/></g>
<g transform="translate(864,351) scale(4.5)"><rect width="6" height="6"/></g>
<g transform="translate(891,351) scale(4.5)"><rect width="6" height="6"/></g>
<g transform="translate(54,378) scale(4.5)"><rect width="6" height="6"/></g>
<g transform="translate(81,378) scale(4.5)"><rect width="6" height="6"/></g>
<g transform="translate(108,378) scale(4.5)"><rect width="6" height="6"/></g>
<g transform="translate(216,378) scale(4.5)"><rect width="6" height="6"/></g>
<g transform="translate(351,378) scale(4.5)"><rect width="6" height="6"/></g>
<g transform="translate(405,378) scale(4.5)"><rect width="6" height="6"/></g>
<g transform="translate(459,378) scale(4.5)"><rect width="6" height="6"/></g>
<g transform="translate(513,378) scale(4.5)"><rect width="6" height="6"/></g>
<g transform="translate(540,378) scale(4.5)"><rect width="6" height="6"/></g>
<g transform="translate(621,378) scale(4.5)"><rect width="6" height="6"/></g>
<g transform="translate(648,378) scale(4.5)"><rect width="6" height="6"/></g>
<g transform="translate(864,378) scale(4.5)"><rect width="6" height="6"/></g>
<g transform="translate(135,405) scale(4.5)"><rect width="6" height="6"/></g>
<g transform="translate(162,405) scale(4.5)"><rect width="6" height="6"/></g>
<g transform="translate(270,405) scale(4.5)"><rect width="6" height="6"/></g>
<g transform="translate(405,405) scale(4.5)"><rect width="6" height="6"/></g>
<g transform="translate(459,405) scale(4.5)"><rect width="6" height="6"/></g>
<g transform="translate(567,405) scale(4.5)"><rect width="6" height="6"/></g>
<g transform="translate(594,405) scale(4.5)"><rect width="6" height="6"/></g>
<g transform="translate(621,405) scale(4.5)"><rect width="6" height="6"/></g>
<g transform="translate(675,405) scale(4.5)"><rect width="6" height="6"/></g>
<g transform="translate(756,405) scale(4.5)"><rect width="6" height="6"/></g>
<g transform="translate(783,405) scale(4.5)"><rect width="6" height="6"/></g>
<g transform="translate(837,405) scale(4.5)"><rect width="6" height="6"/></g>
<g transform="translate(864,405) scale(4.5)"><rect width="6" height="6"/></g>
<g transform="translate(918,405) scale(4.5)"><rect width="6" height="6"/></g>
<g transform="translate(54,432) scale(4.5)"><rect width="6" height="6"/></g>
<g transform="translate(162,432) scale(4.5)"><rect width="6" height="6"/></g>
<g transform="translate(216,432) scale(4.5)"><rect width="6" height="6"/></g>
<g transform="translate(243,432) scale(4.5)"><rect width="6" height="6"/></g>
<g transform="translate(270,432) scale(4.5)"><rect width="6" height="6"/></g>
<g transform="translate(324,432) scale(4.5)"><rect width="6" height="6"/></g>
<g transform="translate(378,432) scale(4.5)"><rect width="6" height="6"/></g>
<g transform="translate(432,432) scale(4.5)"><rect width="6" height="6"/></g>
<g transform="translate(486,432) scale(4.5)"><rect width="6" height="6"/></g>
<g transform="translate(513,432) scale(4.5)"><rect width="6" height="6"/></g>
<g transform="translate(567,432) scale(4.5)"><rect width="6" height="6"/></g>
<g transform="translate(594,432) scale(4.5)"><rect width="6" height="6"/></g>
<g transform="translate(648,432) scale(4.5)"><rect width="6" height="6"/></g>
<g transform="translate(675,432) scale(4.5)"><rect width="6" height="6"/></g>
<g transform="translate(783,432) scale(4.5)"><rect width="6" height="6"/></g>
<g transform="translate(810,432) scale(4.5)"><rect width="6" height="6"/></g>
<g transform="translate(837,432) scale(4.5)"><rect width="6" height="6"/></g>
<g transform="translate(891,432) scale(4.5)"><rect width="6" height="6"/></g>
<g transform="translate(81,459) scale(4.5)"><rect width="6" height="6"/></g>
<g transform="translate(108,459) scale(4.5)"><rect width="6" height="6"/></g>
<g transform="translate(135,459) scale(4.5)"><rect width="6" height="6"/></g>
<g transform="translate(162,459) scale(4.5)"><rect width="6" height="6"/></g>
<g transform="translate(189,459) scale(4.5)"><rect width="6" height="6"/></g>
<g transform="translate(243,459) scale(4.5)"><rect width="6" height="6"/></g>
<g transform="translate(270,459) scale(4.5)"><rect width="6" height="6"/></g>
<g transform="translate(297,459) scale(4.5)"><rect width="6" height="6"/></g>
<g transform="translate(324,459) scale(4.5)"><rect width="6" height="6"/></g>
<g transform="translate(351,459) scale(4.5)"><rect width="6" height="6"/></g>
<g transform="translate(378,459) scale(4.5)"><rect width="6" height="6"/></g>
<g transform="translate(432,459) scale(4.5)"><rect width="6" height="6"/></g>
<g transform="translate(459,459) scale(4.5)"><rect width="6" height="6"/></g>
<g transform="translate(486,459) scale(4.5)"><rect width="6" height="6"/></g>
<g transform="translate(540,459) scale(4.5)"><rect width="6" height="6"/></g>
<g transform="translate(648,459) scale(4.5)"><rect width="6" height="6"/></g>
<g transform="translate(675,459) scale(4.5)"><rect width="6" height="6"/></g>
<g transform="translate(729,459) scale(4.5)"><rect width="6" height="6"/></g>
<g transform="translate(756,459) scale(4.5)"><rect width="6" height="6"/></g>
<g transform="translate(864,459) scale(4.5)"><rect width="6" height="6"/></g>
<g transform="translate(54,486) scale(4.5)"><rect width="6" height="6"/></g>
<g transform="translate(81,486) scale(4.5)"><rect width="6" height="6"/></g>
<g transform="translate(162,486) scale(4.5)"><rect width="6" height="6"/></g>
<g transform="translate(216,486) scale(4.5)"><rect width="6" height="6"/></g>
<g transform="translate(243,486) scale(4.5)"><rect width="6" height="6"/></g>
<g transform="translate(270,486) scale(4.5)"><rect width="6" height="6"/></g>
<g transform="translate(324,486) scale(4.5)"><rect width="6" height="6"/></g>
<g transform="translate(351,486) scale(4.5)"><rect width="6" height="6"/></g>
<g transform="translate(378,486) scale(4.5)"><rect width="6" height="6"/></g>
<g transform="translate(405,486) scale(4.5)"><rect width="6" height="6"/></g>
<g transform="translate(594,486) scale(4.5)"><rect width="6" height="6"/></g>
<g transform="translate(648,486) scale(4.5)"><rect width="6" height="6"/></g>
<g transform="translate(783,486) scale(4.5)"><rect width="6" height="6"/></g>
<g transform="translate(810,486) scale(4.5)"><rect width="6" height="6"/></g>
<g transform="translate(864,486) scale(4.5)"><rect width="6" height="6"/></g>
<g transform="translate(891,486) scale(4.5)"><rect width="6" height="6"/></g>
<g transform="translate(54,513) scale(4.5)"><rect width="6" height="6"/></g>
<g transform="translate(81,513) scale(4.5)"><rect width="6" height="6"/></g>
<g transform="translate(189,513) scale(4.5)"><rect width="6" height="6"/></g>
<g transform="translate(243,513) scale(4.5)"><rect width="6" height="6"/></g>
<g transform="translate(297,513) scale(4.5)"><rect width="6" height="6"/></g>
<g transform="translate(324,513) scale(4.5)"><rect width="6" height="6"/></g>
<g transform="translate(378,513) scale(4.5)"><rect width="6" height="6"/></g>
<g transform="translate(405,513) scale(4.5)"><rect width="6" height="6"/></g>
<g transform="translate(459,513) scale(4.5)"><rect width="6" height="6"/></g>
<g transform="translate(486,513) scale(4.5)"><rect width="6" height="6"/></g>
<g transform="translate(540,513) scale(4.5)"><rect width="6" height="6"/></g>
<g transform="translate(567,513) scale(4.5)"><rect width="6" height="6"/></g>
<g transform="translate(621,513) scale(4.5)"><rect width="6" height="6"/></g>
<g transform="translate(648,513) scale(4.5)"><rect width="6" height="6"/></g>
<g transform="translate(702,513) scale(4.5)"><rect width="6" height="6"/></g>
<g transform="translate(729,513) scale(4.5)"><rect width="6" height="6"/></g>
<g transform="translate(891,513) scale(4.5)"><rect width="6" height="6"/></g>
<g transform="translate(54,540) scale(4.5)"><rect width="6" height="6"/></g>
<g transform="translate(81,540) scale(4.5)"><rect width="6" height="6"/></g>
<g transform="translate(135,540) scale(4.5)"><rect width="6" height="6"/></g>
<g transform="translate(162,540) scale(4.5)"><rect width="6" height="6"/></g>
<g transform="translate(216,540) scale(4.5)"><rect width="6" height="6"/></g>
<g transform="translate(324,540) scale(4.5)"><rect width="6" height="6"/></g>
<g transform="translate(351,540) scale(4.5)"><rect width="6" height="6"/></g>
<g transform="translate(432,540) scale(4.5)"><rect width="6" height="6"/></g>
<g transform="translate(486,540) scale(4.5)"><rect width="6" height="6"/></g>
<g transform="translate(567,540) scale(4.5)"><rect width="6" height="6"/></g>
<g transform="translate(594,540) scale(4.5)"><rect width="6" height="6"/></g>
<g transform="translate(621,540) scale(4.5)"><rect width="6" height="6"/></g>
<g transform="translate(675,540) scale(4.5)"><rect width="6" height="6"/></g>
<g transform="translate(702,540) scale(4.5)"><rect width="6" height="6"/></g>
<g transform="translate(729,540) scale(4.5)"><rect width="6" height="6"/></g>
<g transform="translate(810,540) scale(4.5)"><rect width="6" height="6"/></g>
<g transform="translate(864,540) scale(4.5)"><rect width="6" height="6"/></g>
<g transform="translate(891,540) scale(4.5)"><rect width="6" height="6"/></g>
<g transform="translate(918,540) scale(4.5)"><rect width="6" height="6"/></g>
<g transform="translate(54,567) scale(4.5)"><rect width="6" height="6"/></g>
<g transform="translate(108,567) scale(4.5)"><rect width="6" height="6"/></g>
<g transform="translate(243,567) scale(4.5)"><rect width="6" height="6"/></g>
<g transform="translate(297,567) scale(4.5)"><rect width="6" height="6"/></g>
<g transform="translate(324,567) scale(4.5)"><rect width="6" height="6"/></g>
<g transform="translate(351,567) scale(4.5)"><rect width="6" height="6"/></g>
<g transform="translate(459,567) scale(4.5)"><rect width="6" height="6"/></g>
<g transform="translate(486,567) scale(4.5)"><rect width="6" height="6"/></g>
<g transform="translate(513,567) scale(4.5)"><rect width="6" height="6"/></g>
<g transform="translate(540,567) scale(4.5)"><rect width="6" height="6"/></g>
<g transform="translate(594,567) scale(4.5)"><rect width="6" height="6"/></g>
<g transform="translate(621,567) scale(4.5)"><rect width="6" height="6"/></g>
<g transform="translate(702,567) scale(4.5)"><rect width="6" height="6"/></g>
<g transform="translate(729,567) scale(4.5)"><rect width="6" height="6"/></g>
<g transform="translate(756,567) scale(4.5)"><rect width="6" height="6"/></g>
<g transform="translate(837,567) scale(4.5)"><rect width="6" height="6"/></g>
<g transform="translate(864,567) scale(4.5)"><rect width="6" height="6"/></g>
<g transform="translate(918,567) scale(4.5)"><rect width="6" height="6"/></g>
<g transform="translate(54,594) scale(4.5)"><rect width="6" height="6"/></g>
<g transform="translate(81,594) scale(4.5)"><rect width="6" height="6"/></g>
<g transform="translate(189,594) scale(4.5)"><rect width="6" height="6"/></g>
<g transform="translate(216,594) scale(4.5)"><rect width="6" height="6"/></g>
<g transform="translate(297,594) scale(4.5)"><rect width="6" height="6"/></g>
<g transform="translate(324,594) scale(4.5)"><rect width="6" height="6"/></g>
<g transform="translate(405,594) scale(4.5)"><rect width="6" height="6"/></g>
<g transform="translate(432,594) scale(4.5)"><rect width="6" height="6"/></g>
<g transform="translate(459,594) scale(4.5)"><rect width="6" height="6"/></g>
<g transform="translate(513,594) scale(4.5)"><rect width="6" height="6"/></g>
<g transform="translate(567,594) scale(4.5)"><rect width="6" height="6"/></g>
<g transform="translate(621,594) scale(4.5)"><rect width="6" height="6"/></g>
<g transform="translate(648,594) scale(4.5)"><rect width="6" height="6"/></g>
<g transform="translate(702,594) scale(4.5)"><rect width="6" height="6"/></g>
<g transform="translate(810,594) scale(4.5)"><rect width="6" height="6"/></g>
<g transform="translate(837,594) scale(4.5)"><rect width="6" height="6"/></g>
<g transform="translate(891,594) scale(4.5)"><rect width="6" height="6"/></g>
<g transform="translate(54,621) scale(4.5)"><rect width="6" height="6"/></g>
<g transform="translate(81,621) scale(4.5)"><rect width="6" height="6"/></g>
<g transform="translate(135,621) scale(4.5)"><rect width="6" height="6"/></g>
<g transform="translate(324,621) scale(4.5)"><rect width="6" height="6"/></g>
<g transform="translate(351,621) scale(4.5)"><rect width="6" height="6"/></g>
<g transform="translate(405,621) scale(4.5)"><rect width="6" height="6"/></g>
<g transform="translate(432,621) scale(4.5)"><rect width="6" height="6"/></g>
<g transform="translate(513,621) scale(4.5)"><rect width="6" height="6"/></g>
<g transform="translate(540,621) scale(4.5)"><rect width="6" height="6"/></g>
<g transform="translate(567,621) scale(4.5)"><rect width="6" height="6"/></g>
<g transform="translate(594,621) scale(4.5)"><rect width="6" height="6"/></g>
<g transform="translate(621,621) scale(4.5)"><rect width="6" height="6"/></g>
<g transform="translate(756,621) scale(4.5)"><rect width="6" height="6"/></g>
<g transform="translate(837,621) scale(4.5)"><rect width="6" height="6"/></g>
<g transform="translate(864,621) scale(4.5)"><rect width="6" height="6"/></g>
<g transform="translate(918,621) scale(4.5)"><rect width="6" height="6"/></g>
<g transform="translate(54,648) scale(4.5)"><rect width="6" height="6"/></g>
<g transform="translate(108,648) scale(4.5)"><rect width="6" height="6"/></g>
<g transform="translate(162,648) scale(4.5)"><rect width="6" height="6"/></g>
<g transform="translate(189,648) scale(4.5)"><rect width="6" height="6"/></g>
<g transform="translate(216,648) scale(4.5)"><rect width="6" height="6"/></g>
<g transform="translate(297,648) scale(4.5)"><rect width="6" height="6"/></g>
<g transform="translate(324,648) scale(4.5)"><rect width="6" height="6"/></g>
<g transform="translate(351,648) scale(4.5)"><rect width="6" height="6"/></g>
<g transform="translate(378,648) scale(4.5)"><rect width="6" height="6"/></g>
<g transform="translate(432,648) scale(4.5)"><rect width="6" height="6"/></g>
<g transform="translate(486,648) scale(4.5)"><rect width="6" height="6"/></g>
<g transform="translate(648,648) scale(4.5)"><rect width="6" height="6"/></g>
<g transform="translate(702,648) scale(4.5)"><rect width="6" height="6"/></g>
<g transform="translate(837,648) scale(4.5)"><rect width="6" height="6"/></g>
<g transform="translate(54,675) scale(4.5)"><rect width="6" height="6"/></g>
<g transform="translate(243,675) scale(4.5)"><rect width="6" height="6"/></g>
<g transform="translate(270,675) scale(4.5)"><rect width="6" height="6"/></g>
<g transform="translate(324,675) scale(4.5)"><rect width="6" height="6"/></g>
<g transform="translate(405,675) scale(4.5)"><rect width="6" height="6"/></g>
<g transform="translate(459,675) scale(4.5)"><rect width="6" height="6"/></g>
<g transform="translate(594,675) scale(4.5)"><rect width="6" height="6"/></g>
<g transform="translate(621,675) scale(4.5)"><rect width="6" height="6"/></g>
<g transform="translate(675,675) scale(4.5)"><rect width="6" height="6"/></g>
<g transform="translate(783,675) scale(4.5)"><rect width="6" height="6"/></g>
<g transform="translate(54,702) scale(4.5)"><rect width="6" height="6"/></g>
<g transform="translate(162,702) scale(4.5)"><rect width="6" height="6"/></g>
<g transform="translate(216,702) scale(4.5)"><rect width="6" height="6"/></g>
<g transform="translate(324,702) scale(4.5)"><rect width="6" height="6"/></g>
<g transform="translate(351,702) scale(4.5)"><rect width="6" height="6"/></g>
<g transform="translate(378,702) scale(4.5)"><rect width="6" height="6"/></g>
<g transform="translate(459,702) scale(4.5)"><rect width="6" height="6"/></g>
<g transform="translate(486,702) scale(4.5)"><rect width="6" height="6"/></g>
<g transform="translate(513,702) scale(4.5)"><rect width="6" height="6"/></g>
<g transform="translate(621,702) scale(4.5)"><rect width="6" height="6"/></g>
<g transform="translate(702,702) scale(4.5)"><rect width="6" height="6"/></g>
<g transform="translate(729,702) scale(4.5)"><rect width="6" height="6"/></g>
<g transform="translate(756,702) scale(4.5)"><rect width="6" height="6"/></g>
<g transform="translate(783,702) scale(4.5)"><rect width="6" height="6"/></g>
<g transform="translate(810,702) scale(4.5)"><rect width="6" height="6"/></g>
<g transform="translate(837,702) scale(4.5)"><rect width="6" height="6"/></g>
<g transform="translate(270,729) scale(4.5)"><rect width="6" height="6"/></g>
<g transform="translate(297,729) scale(4.5)"><rect width="6" height="6"/></g>
<g transform="translate(324,729) scale(4.5)"><rect width="6" height="6"/></g>
<g transform="translate(351,729) scale(4.5)"><rect width="6" height="6"/></g>
<g transform="translate(378,729) scale(4.5)"><rect width="6" height="6"/></g>
<g transform="translate(432,729) scale(4.5)"><rect width="6" height="6"/></g>
<g transform="translate(486,729) scale(4.5)"><rect width="6" height="6"/></g>
<g transform="translate(513,729) scale(4.5)"><rect width="6" height="6"/></g>
<g transform="translate(540,729) scale(4.5)"><rect width="6" height="6"/></g>
<g transform="translate(594,729) scale(4.5)"><rect width="6" height="6"/></g>
<g transform="translate(621,729) scale(4.5)"><rect width="6" height="6"/></g>
<g transform="translate(648,729) scale(4.5)"><rect width="6" height="6"/></g>
<g transform="translate(675,729) scale(4.5)"><rect width="6" height="6"/></g>
<g transform="translate(702,729) scale(4.5)"><rect width="6" height="6"/></g>
<g transform="translate(810,729) scale(4.5)"><rect width="6" height="6"/></g>
<g transform="translate(864,729) scale(4.5)"><rect width="6" height="6"/></g>
<g transform="translate(297,756) scale(4.5)"><rect width="6" height="6"/></g>
<g transform="translate(432,756) scale(4.5)"><rect width="6" height="6"/></g>
<g transform="translate(486,756) scale(4.5)"><rect width="6" height="6"/></g>
<g transform="translate(513,756) scale(4.5)"><rect width="6" height="6"/></g>
<g transform="translate(540,756) scale(4.5)"><rect width="6" height="6"/></g>
<g transform="translate(567,756) scale(4.5)"><rect width="6" height="6"/></g>
<g transform="translate(621,756) scale(4.5)"><rect width="6" height="6"/></g>
<g transform="translate(675,756) scale(4.5)"><rect width="6" height="6"/></g>
<g transform="translate(702,756) scale(4.5)"><rect width="6" height="6"/></g>
<g transform="translate(756,756) scale(4.5)"><rect width="6" height="6"/></g>
<g transform="translate(810,756) scale(4.5)"><rect width="6" height="6"/></g>
<g transform="translate(864,756) scale(4.5)"><rect width="6" height="6"/></g>
<g transform="translate(324,783) scale(4.5)"><rect width="6" height="6"/></g>
<g transform="translate(351,783) scale(4.5)"><rect width="6" height="6"/></g>
<g transform="translate(405,783) scale(4.5)"><rect width="6" height="6"/></g>
<g transform="translate(459,783) scale(4.5)"><rect width="6" height="6"/></g>
<g transform="translate(486,783) scale(4.5)"><rect width="6" height="6"/></g>
<g transform="translate(513,783) scale(4.5)"><rect width="6" height="6"/></g>
<g transform="translate(540,783) scale(4.5)"><rect width="6" height="6"/></g>
<g transform="translate(621,783) scale(4.5)"><rect width="6" height="6"/></g>
<g transform="translate(648,783) scale(4.5)"><rect width="6" height="6"/></g>
<g transform="translate(675,783) scale(4.5)"><rect width="6" height="6"/></g>
<g transform="translate(702,783) scale(4.5)"><rect width="6" height="6"/></g>
<g transform="translate(810,783) scale(4.5)"><rect width="6" height="6"/></g>
<g transform="translate(837,783) scale(4.5)"><rect width="6" height="6"/></g>
<g transform="translate(918,783) scale(4.5)"><rect width="6" height="6"/></g>
<g transform="translate(270,810) scale(4.5)"><rect width="6" height="6"/></g>
<g transform="translate(324,810) scale(4.5)"><rect width="6" height="6"/></g>
<g transform="translate(432,810) scale(4.5)"><rect width="6" height="6"/></g>
<g transform="translate(486,810) scale(4.5)"><rect width="6" height="6"/></g>
<g transform="translate(513,810) scale(4.5)"><rect width="6" height="6"/></g>
<g transform="translate(540,810) scale(4.5)"><rect width="6" height="6"/></g>
<g transform="translate(621,810) scale(4.5)"><rect width="6" height="6"/></g>
<g transform="translate(675,810) scale(4.5)"><rect width="6" height="6"/></g>
<g transform="translate(702,810) scale(4.5)"><rect width="6" height="6"/></g>
<g transform="translate(729,810) scale(4.5)"><rect width="6" height="6"/></g>
<g transform="translate(756,810) scale(4.5)"><rect width="6" height="6"/></g>
<g transform="translate(783,810) scale(4.5)"><rect width="6" height="6"/></g>
<g transform="translate(810,810) scale(4.5)"><rect width="6" height="6"/></g>
<g transform="translate(864,810) scale(4.5)"><rect width="6" height="6"/></g>
<g transform="translate(270,837) scale(4.5)"><rect width="6" height="6"/></g>
<g transform="translate(297,837) scale(4.5)"><rect width="6" height="6"/></g>
<g transform="translate(486,837) scale(4.5)"><rect width="6" height="6"/></g>
<g transform="translate(594,837) scale(4.5)"><rect width="6" height="6"/></g>
<g transform="translate(621,837) scale(4.5)"><rect width="6" height="6"/></g>
<g transform="translate(648,837) scale(4.5)"><rect width="6" height="6"/></g>
<g transform="translate(810,837) scale(4.5)"><rect width="6" height="6"/></g>
<g transform="translate(837,837) scale(4.5)"><rect width="6" height="6"/></g>
<g transform="translate(864,837) scale(4.5)"><rect width="6" height="6"/></g>
<g transform="translate(270,864) scale(4.5)"><rect width="6" height="6"/></g>
<g transform="translate(351,864) scale(4.5)"><rect width="6" height="6"/></g>
<g transform="translate(540,864) scale(4.5)"><rect width="6" height="6"/></g>
<g transform="translate(594,864) scale(4.5)"><rect width="6" height="6"/></g>
<g transform="translate(648,864) scale(4.5)"><rect width="6" height="6"/></g>
<g transform="translate(702,864) scale(4.5)"><rect width="6" height="6"/></g>
<g transform="translate(756,864) scale(4.5)"><rect width="6" height="6"/></g>
<g transform="translate(324,891) scale(4.5)"><rect width="6" height="6"/></g>
<g transform="translate(351,891) scale(4.5)"><rect width="6" height="6"/></g>
<g transform="translate(378,891) scale(4.5)"><rect width="6" height="6"/></g>
<g transform="translate(486,891) scale(4.5)"><rect width="6" height="6"/></g>
<g transform="translate(513,891) scale(4.5)"><rect width="6" height="6"/></g>
<g transform="translate(540,891) scale(4.5)"><rect width="6" height="6"/></g>
<g transform="translate(621,891) scale(4.5)"><rect width="6" height="6"/></g>
<g transform="translate(702,891) scale(4.5)"><rect width="6" height="6"/></g>
<g transform="translate(729,891) scale(4.5)"><rect width="6" height="6"/></g>
<g transform="translate(756,891) scale(4.5)"><rect width="6" height="6"/></g>
<g transform="translate(783,891) scale(4.5)"><rect width="6" height="6"/></g>
<g transform="translate(864,891) scale(4.5)"><rect width="6" height="6"/></g>
<g transform="translate(297,918) scale(4.5)"><rect width="6" height="6"/></g>
<g transform="translate(351,918) scale(4.5)"><rect width="6" height="6"/></g>
<g transform="translate(405,918) scale(4.5)"><rect width="6" height="6"/></g>
<g transform="translate(432,918) scale(4.5)"><rect width="6" height="6"/></g>
<g transform="translate(459,918) scale(4.5)"><rect width="6" height="6"/></g>
<g transform="translate(486,918) scale(4.5)"><rect width="6" height="6"/></g>
<g transform="translate(513,918) scale(4.5)"><rect width="6" height="6"/></g>
<g transform="translate(567,918) scale(4.5)"><rect width="6" height="6"/></g>
<g transform="translate(621,918) scale(4.5)"><rect width="6" height="6"/></g>
<g transform="translate(675,918) scale(4.5)"><rect width="6" height="6"/></g>
<g transform="translate(756,918) scale(4.5)"><rect width="6" height="6"/></g>
<g transform="translate(837,918) scale(4.5)"><rect width="6" height="6"/></g>
<g transform="translate(891,918) scale(4.5)"><rect width="6" height="6"/></g>
</g></mask></defs>
<rect width="999" height="999" fill="#ffffff" x="0" y="0" />
<rect x="0" y="0" width="999" height="999" mask="url(#qrmask)" fill="#000000" />
<g transform="translate(54,54)"  fill="#000000"><g transform="scale(13.5)"><path d="M0,0v14h14V0H0z M12,12H2V2h10V12z"/></g></g>
<g transform="translate(756,54)"  fill="#000000"><g transform="scale(13.5)"><path d="M0,0v14h14V0H0z M12,12H2V2h10V12z"/></g></g>
<g transform="translate(54,756)"  fill="#000000"><g transform="scale(13.5)"><path d="M0,0v14h14V0H0z M12,12H2V2h10V12z"/></g></g>
<g transform="translate(108,108)"  fill="#000000"><g transform="scale(13.5)"><rect width="6" height="6"/></g></g>
<g transform="translate(810,108)"  fill="#000000"><g transform="scale(13.5)"><rect width="6" height="6"/></g></g>
<g transform="translate(108,810)"  fill="#000000"><g transform="scale(13.5)"><rect width="6" height="6"/></g></g>
</svg>